<svg xmlns="http://www.w3.org/2000/svg" width="85" height="85" viewBox="0 0 85 85"><defs><style>.a{fill:none;}.b{fill:#49423e;}</style></defs><g transform="translate(-457 -87)"><rect class="a" width="85" height="85" rx="4" transform="translate(457 87)"/><g transform="translate(477.833 104.5)"><g transform="translate(0 2.473)"><path class="b" d="M192.277,169.891a.574.574,0,0,0,.5-.855l-2.413-4.321,16.288-3.389a.575.575,0,0,0,.45-.471,14.041,14.041,0,0,0-.822-7.475l-.625-1.56a.575.575,0,0,0-.983-.145l-.858,1.076a6.361,6.361,0,0,1-5,2.408c-.186,0-.374-.008-.56-.025l-2.636-.231a12.458,12.458,0,0,1-8.543-4.54.574.574,0,0,0-.795-.1l-9.171,6.991-10.342,4.04a3.678,3.678,0,0,0-2.313,3.9l.182,1.422a.575.575,0,0,0,.594.5l16.114-.671,10.753,3.414A.583.583,0,0,0,192.277,169.891Zm13.75-9.609-16.662,3.467a.574.574,0,0,0-.384.843l2.087,3.737-9.466-3.005a.58.58,0,0,0-.2-.026l-15.689.653-.115-.9a2.529,2.529,0,0,1,1.59-2.682l10.417-4.069a.57.57,0,0,0,.139-.078l8.8-6.709a13.622,13.622,0,0,0,8.975,4.535l2.636.231c.219.019.441.029.66.029a7.5,7.5,0,0,0,5.9-2.841l.243-.3.257.643A12.89,12.89,0,0,1,206.027,160.282Z" transform="translate(-164.429 -150.151)"/><g transform="translate(0.208 10.037)"><path class="b" d="M169.7,186.047h.007l31.012-.035a6.028,6.028,0,0,0,4.3-1.848l2.02-2.11a.575.575,0,0,0,.159-.41l-.1-4.734a.575.575,0,0,0-.689-.551l-25.064,5.1-16.17.673a.575.575,0,0,0-.489.834A5.589,5.589,0,0,0,169.7,186.047Zm36.347-4.616-1.856,1.938a4.869,4.869,0,0,1-3.476,1.494l-31.01.035,0,.575V184.9a4.44,4.44,0,0,1-3.474-1.658l15.217-.634a.558.558,0,0,0,.09-.011l24.435-4.972Z" transform="translate(-164.63 -176.347)"/></g></g><g transform="translate(12.411 2.922)"><g transform="translate(0 5.347)"><path class="b" d="M238.278,169.082a.575.575,0,0,0,.461-.918l-1.982-2.656a.575.575,0,0,0-.921.687l1.982,2.656A.573.573,0,0,0,238.278,169.082Z" transform="translate(-235.722 -165.277)"/></g><g transform="translate(2.503 3.438)"><path class="b" d="M231.044,164.289a.575.575,0,0,0,.438-.947l-2.417-2.844a.575.575,0,1,0-.875.744l2.417,2.844A.572.572,0,0,0,231.044,164.289Z" transform="translate(-228.053 -160.296)"/></g><g transform="translate(4.803 1.719)"><path class="b" d="M225.042,159.8a.575.575,0,0,0,.438-.947l-2.417-2.844a.574.574,0,1,0-.876.744L224.6,159.6A.573.573,0,0,0,225.042,159.8Z" transform="translate(-222.05 -155.808)"/></g><g transform="translate(7.103)"><path class="b" d="M219.04,155.315a.575.575,0,0,0,.438-.947l-2.417-2.843a.575.575,0,1,0-.876.744l2.417,2.844A.574.574,0,0,0,219.04,155.315Z" transform="translate(-216.048 -151.322)"/></g></g><g transform="translate(29.206 16.06)"><path class="b" d="M180.361,189.76h.059a3.389,3.389,0,0,0,2.6-1.213l1.673-1.992a.575.575,0,0,0-.555-.933l-8.312,1.689a.575.575,0,0,0-.2,1.045A8.657,8.657,0,0,0,180.361,189.76Zm2.394-2.684-.615.732a2.243,2.243,0,0,1-1.721.8h-.059a7.512,7.512,0,0,1-2.7-.5Z" transform="translate(-175.367 -185.61)"/></g><g transform="translate(12.411 8.817)"><path class="b" d="M165.232,176.519a.574.574,0,0,0,.513-.316l1.348-2.676a2.649,2.649,0,0,1,1.931-1.417l25.512-4.262a.575.575,0,1,0-.189-1.134l-25.51,4.261a3.8,3.8,0,0,0-2.771,2.034l-1.348,2.676a.574.574,0,0,0,.255.772A.567.567,0,0,0,165.232,176.519Z" transform="translate(-164.657 -166.706)"/></g><g transform="translate(2.729 10.596)"><path class="b" d="M248.565,176.745a2.749,2.749,0,0,0,.9-.15l5.039-1.733a.574.574,0,0,0,.356-.731l-.825-2.394a.575.575,0,0,0-1.087.374l.638,1.85-4.494,1.546a1.618,1.618,0,0,1-1.977-.818.575.575,0,1,0-1.033.505A2.772,2.772,0,0,0,248.565,176.745Z" transform="translate(-246.019 -171.35)"/></g><g transform="translate(38.875 0)"><path class="b" d="M167.481,149.127a.574.574,0,0,0,.5-.284l.793-1.349a2.54,2.54,0,0,0,.125-2.329,2.506,2.506,0,0,0-1.829-1.446,1.252,1.252,0,0,0-1.408,1.677l1.287,3.361a.574.574,0,0,0,.489.367Zm-.658-4.282a1.384,1.384,0,0,1,.955,2.066l-.188.32-.859-2.246a.1.1,0,0,1,.01-.094A.1.1,0,0,1,166.824,144.845Z" transform="translate(-165.575 -143.695)"/></g></g></g></svg>