<?xml version="1.0" encoding="utf-8"?>
<!-- Generator: Adobe Illustrator 16.0.3, SVG Export Plug-In . SVG Version: 6.00 Build 0)  -->
<!DOCTYPE svg PUBLIC "-//W3C//DTD SVG 1.1//EN" "http://www.w3.org/Graphics/SVG/1.1/DTD/svg11.dtd">
<svg version="1.1" id="レイヤー_1" xmlns="http://www.w3.org/2000/svg" xmlns:xlink="http://www.w3.org/1999/xlink" x="0px"
	 y="0px" width="85px" height="85px" viewBox="0 0 85 85" enable-background="new 0 0 85 85" xml:space="preserve">
<image overflow="visible" width="1343" height="1002" xlink:href="4B67C3AD.jpg"  transform="matrix(1 0 0 1 -1504.8003 -19.9443)">
</image>
<image overflow="visible" width="350" height="249" xlink:href="../素材/02446300294.jpg"  transform="matrix(0.1862 0 0 0.1862 93.5479 -217.0469)">
</image>
<image overflow="visible" width="600" height="600" xlink:href="../素材/59842900014[1].jpg"  transform="matrix(0.0971 0 0 0.0971 97.2134 -116.6709)">
</image>
<image overflow="visible" width="600" height="600" xlink:href="../素材/58812600031[1].jpg"  transform="matrix(0.0773 0 0 -0.0773 102.438 47.8691)">
</image>
<g>
	<path fill="none" stroke="#4D4D4D" stroke-linejoin="round" stroke-miterlimit="10" d="M40.355-196.599
		c0.46-0.836,0.69-3.688,0.46-3.803s-4.465,2.996-6.308,4.207c-1.844,1.208-2.938,2.621-5.761,2.563
		c-2.823-0.059-7.087-0.89-7.778,0.001s-1.354,1.899-1.18,3.255l-0.029,0.604c0,0-0.174-0.028-0.433,0.462
		c-0.26,0.488-0.26,0.833,0,1.064c0.259,0.232,3.495,1.576,7.633,2.361c4.307,0.82,8.787,0.749,12.126,0.663
		c4.803-0.123,9.95-1.036,14.66-1.83c0.033,0.65-0.043,1.328-0.082,1.987c0,0,10.571-0.171,11.284-0.321
		c0.712-0.151,0.712-0.151,0.712-0.151s0.302-3.782,0.174-4.084c-0.13-0.302-0.303-0.539-0.303-0.539
		c0.472-2.578,0.455-5.566-0.713-7.994c-0.561-1.166-0.432-1.9-1.124-2.008c-0.691-0.11-4.169,0.732-7.669,1.469
		c-3.5,0.732-7.951,1.721-10.112,2.153c-2.161,0.433-5.041,1.123-5.041,1.123S39.894-195.764,40.355-196.599z"/>
	<polyline fill="none" stroke="#4D4D4D" stroke-linejoin="round" stroke-miterlimit="10" points="32.544,-194.788 34.939,-191.068 
		41.119,-192.45 37.117,-197.994 	"/>
	<path fill="none" stroke="#4D4D4D" stroke-miterlimit="10" d="M20.968-193.631c0,0,1.958,2.88,13.194,1.193"/>
	<path fill="none" stroke="#4D4D4D" stroke-miterlimit="10" d="M40.298-193.631c0,0,19.415-3.782,24.203-5.318"/>
	<path fill="none" stroke="#4D4D4D" stroke-miterlimit="10" d="M62.853-189.556c1.901-2.291-0.374-8.965-0.374-8.965"/>
	<path fill="none" stroke="#4D4D4D" stroke-miterlimit="10" d="M19.76-189.772c0,0,8.612,4.234,25.033,2.033
		c0,0,12.271-1.515,14.561-1.515c2.29,0,5.582-0.744,6.248-0.804"/>
</g>
<g>
	<path fill="none" stroke="#4D4D4D" stroke-linejoin="round" stroke-miterlimit="10" d="M40.549,689.441
		c0.419-0.76,0.628-3.354,0.419-3.459c-0.209-0.105-4.063,2.726-5.739,3.827c-1.678,1.099-2.673,2.385-5.241,2.331
		c-2.569-0.053-6.448-0.809-7.076,0.001c-0.629,0.811-1.232,1.729-1.074,2.962l-0.026,0.55c0,0-0.158-0.026-0.394,0.42
		c-0.237,0.444-0.237,0.758,0,0.969c0.235,0.211,3.18,1.434,6.945,2.148c3.918,0.746,7.994,0.681,11.033,0.603
		c4.369-0.111,9.052-0.942,13.337-1.664c0.03,0.592-0.039,1.208-0.074,1.808c0,0,9.617-0.155,10.266-0.292
		c0.648-0.138,0.648-0.138,0.648-0.138s0.275-3.441,0.158-3.716c-0.118-0.274-0.276-0.49-0.276-0.49
		c0.429-2.346,0.414-5.064-0.648-7.273c-0.51-1.061-0.393-1.729-1.022-1.826c-0.629-0.101-3.793,0.666-6.978,1.336
		c-3.185,0.666-7.233,1.565-9.2,1.959c-1.965,0.394-4.585,1.021-4.585,1.021S40.13,690.201,40.549,689.441z"/>
	<polyline fill="none" stroke="#4D4D4D" stroke-linejoin="round" stroke-miterlimit="10" points="33.443,691.089 35.622,694.474 
		41.244,693.216 37.604,688.172 	"/>
	<path fill="none" stroke="#4D4D4D" stroke-miterlimit="10" d="M22.911,692.142c0,0,1.781,2.62,12.004,1.086"/>
	<path fill="none" stroke="#4D4D4D" stroke-miterlimit="10" d="M40.498,692.142c0,0,17.664-3.44,22.02-4.839"/>
	<path fill="none" stroke="#4D4D4D" stroke-miterlimit="10" d="M61.017,695.85c1.73-2.084-0.34-8.156-0.34-8.156"/>
	<path fill="none" stroke="#4D4D4D" stroke-miterlimit="10" d="M21.812,695.652c0,0,7.835,3.853,22.775,1.85
		c0,0,11.164-1.378,13.247-1.378c2.083,0,5.079-0.677,5.685-0.731"/>
</g>
<g>
	<g>
		<path fill="none" stroke="#4D4D4D" stroke-miterlimit="10" d="M41.175,31.233c0,0,0.254-6.021-0.721-10.644
			s-2.078-6.911-5.555-6.911c-3.477,0-6.487,2.035-7.718,4.834c-1.939,4.413-0.934,9.271,0.466,13.676
			c0.722,2.272,1.579,4.498,2.323,6.763c0.937,2.847,1.446,8.177,4.376,9.837c2.061,1.167,4.52,0.556,6.167-1.015
			c1.489-1.419,1.562-3.213,1.305-5.177C41.387,39.29,41.148,32.419,41.175,31.233z"/>
		<path fill="none" stroke="#4D4D4D" stroke-miterlimit="10" d="M26.109,24.31c0,0,12.008-3.179,14.264-4.092"/>
		<path fill="none" stroke="#4D4D4D" stroke-miterlimit="10" d="M28.271,34.062c0,0,6.3-6.476,12.916-3.224"/>
		<path fill="none" stroke="#4D4D4D" stroke-miterlimit="10" d="M28.083,23.781c-0.106-1.962,0.209-4.171,1.491-5.743
			c1.762-2.161,5.803-3.95,7.815-1.151c0.792,1.102,1.053,2.614,1.202,3.934"/>
		<path fill="none" stroke="#4D4D4D" stroke-miterlimit="10" d="M29.65,32.873c0,0,1.856,5.822,2.45,8.24
			c0.451,1.835,0.805,4.013,2.131,5.459c1.162,1.267,3.397,1.572,4.822,0.485c1.624-1.239,1.288-3.41,1.014-5.149
			c-0.619-3.928-0.741-7.802-0.837-11.767"/>
	</g>
	<g>
		<path fill="none" stroke="#4D4D4D" stroke-miterlimit="10" d="M43.826,31.233c0,0-0.254-6.021,0.721-10.644
			c0.976-4.622,2.078-6.911,5.555-6.911c3.477,0,6.487,2.035,7.717,4.834c1.939,4.413,0.934,9.271-0.467,13.676
			c-0.721,2.272-1.578,4.498-2.323,6.763c-0.936,2.847-1.446,8.177-4.376,9.837c-2.06,1.167-4.52,0.556-6.167-1.015
			c-1.489-1.419-1.562-3.213-1.305-5.177C43.614,39.29,43.852,32.419,43.826,31.233z"/>
		<path fill="none" stroke="#4D4D4D" stroke-miterlimit="10" d="M58.891,24.31c0,0-12.007-3.179-14.265-4.092"/>
		<path fill="none" stroke="#4D4D4D" stroke-miterlimit="10" d="M56.729,34.062c0,0-6.299-6.476-12.916-3.224"/>
		<path fill="none" stroke="#4D4D4D" stroke-miterlimit="10" d="M56.918,23.781c0.106-1.962-0.209-4.171-1.491-5.743
			c-1.762-2.161-5.803-3.95-7.816-1.151c-0.792,1.102-1.052,2.614-1.203,3.934"/>
		<path fill="none" stroke="#4D4D4D" stroke-miterlimit="10" d="M55.351,32.873c0,0-1.857,5.822-2.451,8.24
			c-0.451,1.835-0.805,4.013-2.131,5.459c-1.162,1.267-3.396,1.572-4.822,0.485c-1.624-1.239-1.288-3.41-1.014-5.149
			c0.619-3.928,0.741-7.802,0.837-11.767"/>
	</g>
</g>
<image overflow="visible" width="600" height="600" xlink:href="../素材/59453900014[1].jpg"  transform="matrix(0.0875 0 0 0.0875 102.438 115.2529)">
</image>
<g>
	<path fill="none" stroke="#4D4D4D" stroke-linejoin="round" stroke-miterlimit="10" d="M44.069,138.462
		c-0.026-0.021-0.054-0.038-0.084-0.051c-0.36-0.146-1.692,0.85-2.065,1.016c-1.946,0.867-3.943,1.935-6.01,2.637
		c-2.154,0.731-4.406,1.116-6.631,1.561c-1.213,0.242-2.428,0.474-3.646,0.693c-2.491,0.45-5.111,0.668-5.555,3.719
		c-0.6,4.122,5.561,5.501,8.605,6.1c1.693,0.333,3.438,0.515,5.16,0.614c7.563,0.438,12.313-0.563,19.188-0.563
		c2.25,0,4.497-0.021,6.746-0.117c1.14-0.049,2.345-0.224,3.232-0.993c0.714-0.62,1.247-1.498,1.429-2.43
		c0.209-1.069-0.186-2.057-0.229-3.118c-0.035-0.839-0.033-1.681-0.054-2.521c-0.028-1.15,0.301-3.497-0.374-4.509
		c-0.438-0.656-0.906-1.094-2.188-0.75s-4.156,1.938-9.719,1.531s-6.859-0.438-7.141-0.547s-0.344-0.188-0.344-0.188
		C44.367,140.128,44.469,138.79,44.069,138.462z"/>
	<path fill="none" stroke="#4D4D4D" stroke-linejoin="round" stroke-miterlimit="10" d="M21.185,145.685
		c0,0,2.377,2.722,9.252,3.878s13.781,0.469,17.563,0.25s12.991,0.695,16.23-1.715"/>
	<path fill="none" stroke="#4D4D4D" stroke-linejoin="round" stroke-miterlimit="10" d="M44.391,140.547c0,0-0.287,1.62-4.641,4.058
		c0,0-1.646,0.735-1.104,1.951s2.604,3.659,2.604,3.659"/>
	<path fill="none" stroke="#4D4D4D" stroke-linejoin="round" stroke-miterlimit="10" d="M39.132,147.412
		c0,0,5.555-4.225,7.461-4.287s4.625,0.313,8.438,0s7.611-2.006,8.134-3.284"/>
	
		<line fill="none" stroke="#4D4D4D" stroke-linejoin="round" stroke-miterlimit="10" x1="43.826" y1="141.514" x2="45.877" y2="143.275"/>
	<path fill="none" stroke="#4D4D4D" stroke-linejoin="round" stroke-miterlimit="10" d="M53.813,149.809c0,0,3.072-5.18,10.38-6.182
		"/>
</g>
<image overflow="visible" width="600" height="600" xlink:href="../素材/55633900014[1].jpg"  transform="matrix(0.077 0 0 0.077 105.6006 217.5889)">
</image>
<g>
	<path fill="none" stroke="#4D4D4D" stroke-linecap="round" stroke-linejoin="round" stroke-miterlimit="10" d="M46.157,236.459
		c-2.167,3-6.458,7.709-9.792,9.459s-5.542,1.749-7.583,1.749s-4.333,0.084-5.083,2.335c-0.144,0.433-0.252,0.989-0.498,1.38
		c-0.354,0.561-0.616,0.586-0.784,1.285c-0.144,0.6-0.176,1.305-0.208,1.917c-0.048,0.917,2.685,2.499,4.241,3.183
		c2.311,1.016,4.745,1.504,7.238,1.83c3.551,0.465,7.143,0.515,10.698,0.07l0.688-0.958l6.604-0.646l0.208,1.75
		c0,0,5.417,0.249,8.188-0.084c1.338-0.161,2.75-0.203,2.891-1.808c0.087-0.984,0.132-2.113-0.014-3.093
		c-0.14-0.938-0.767-1.504-0.713-2.504c0.029-0.531,0.121-1.063,0.171-1.593c0.182-1.929,0.107-3.874-0.126-5.795
		c0,0-0.218-2.934-0.375-3.156c-0.062-0.088,0.849-1.146,0.92-1.288c0.715-1.432,0.457-2.589-1.034-2.976
		c-1.811-0.47-3.607-1.104-5.387-1.684c0,0-4.118-1.751-6.64-1.771C47.475,234.044,47.188,235.03,46.157,236.459z"/>
	<path fill="none" stroke="#4D4D4D" stroke-miterlimit="10" d="M22.995,251.75c2.626,2.178,5.835,3.875,9.187,4.593
		c4.434,0.948,9.566,0.264,14.017-0.301c2.787-0.354,5.579-0.796,8.376-1.117c2.583-0.297,5.314-0.352,7.603-1.736"/>
	<path fill="none" stroke="#4D4D4D" stroke-linecap="round" stroke-miterlimit="10" d="M51.138,234.202c0,0-2.981,5.214,0.936,6.506
		s8.208,1.104,9.833,1.073"/>
	<path fill="none" stroke="#4D4D4D" stroke-linecap="round" stroke-miterlimit="10" d="M37.281,245.516
		c-0.247,0.986-0.607,2.367-0.326,3.367c0.447,1.593,2.504,0.991,3.683,0.804c2.276-0.361,4.598-0.479,6.889-0.722
		c1.548-0.165,3.084-0.403,4.629-0.59c4.833-0.584,10.021-2.25,10.021-2.25"/>
	<path fill="none" stroke="#4D4D4D" stroke-width="0.5" stroke-linejoin="bevel" stroke-miterlimit="10" d="M51.167,239.959
		c-1.702,3.687-5.286,5.872-7.269,9.339"/>
	<line fill="none" stroke="#4D4D4D" stroke-miterlimit="10" x1="39.078" y1="244.2" x2="41.344" y2="245.75"/>
	<circle fill="#FFFFFF" stroke="#4D4D4D" stroke-width="0.75" stroke-miterlimit="10" cx="41.532" cy="245.75" r="0.813"/>
	<line fill="none" stroke="#4D4D4D" stroke-miterlimit="10" x1="42.051" y1="241.236" x2="44.532" y2="242.688"/>
	<circle fill="#FFFFFF" stroke="#4D4D4D" stroke-width="0.75" stroke-miterlimit="10" cx="44.532" cy="242.75" r="0.813"/>
	<line fill="none" stroke="#4D4D4D" stroke-miterlimit="10" x1="45.377" y1="237.494" x2="47.422" y2="238.75"/>
	<circle fill="#FFFFFF" stroke="#4D4D4D" stroke-width="0.75" stroke-miterlimit="10" cx="47.532" cy="238.75" r="0.813"/>
</g>
<image overflow="visible" width="600" height="600" xlink:href="../素材/57306000014[1].jpg"  transform="matrix(0.0747 0 0 0.0747 102.438 315.5)">
</image>
<g>
	<path fill="none" stroke="#4D4D4D" stroke-linecap="round" stroke-linejoin="round" stroke-miterlimit="10" d="M39.284,332.816
		c0,0,0.594,6.03,0.594,7.035c0,1.006,0,1.554-1.69,2.514c-2.578,1.464-5.219,2.81-7.841,4.193c-2.042,1.077-4.08,2.13-5.59,3.938
		c-0.529,0.634-0.934,0.376-1.116,1.276c-0.951,4.703,7.468,4.859,10.313,4.901c1.968,0.028,3.96-0.053,5.923-0.191
		c9.777-0.685,16.127-0.959,17.818-0.959c1.189,0,2.903-0.046,3.453-1.306c0.394-0.902,0.498-3.678-0.482-4.314l-0.274-0.365
		c-0.551-1.261-0.307-2.886-0.248-4.216c0.11-2.516,0.327-5.029,0.416-7.545c0.03-0.851,0.411-4.411-0.898-4.687
		c-0.869-0.184-9.412-0.457-11.925-0.457S39.24,332.365,39.284,332.816z"/>
	<path fill="none" stroke="#4D4D4D" stroke-miterlimit="10" d="M24.197,350.955c0,0-0.265,3.653,12.528,2.558
		c0,0,10.92-2.102,13.524-2.284c2.604-0.184,9.933-1.284,10.312-1.465"/>
	<path fill="none" stroke="#4D4D4D" stroke-miterlimit="10" d="M39.409,334.109c0,0,19.554,0.646,20.931,0.558"/>
	<path fill="none" stroke="#4D4D4D" stroke-miterlimit="10" d="M50.478,334.224c0,0,0.183,14.035-0.229,17.005"/>
	<path fill="none" stroke="#4D4D4D" stroke-miterlimit="10" d="M39.747,340.942c0,0,3.096,2.427,10.637,2.838"/>
</g>
<g>
	<path fill="none" stroke="#4D4D4D" stroke-miterlimit="10" d="M46.935-106.258c-0.447,0.38-0.745,0.956-1.071,1.439
		c-0.646,0.958-1.312,1.906-1.978,2.854c-1.364,1.936-2.782,3.842-4.39,5.583c-2.464,2.671-5.237,4.452-6.812,5.102
		c-1.338,0.552-2.886,0.724-4.305,0.942c-2.012,0.311-6.17,0.005-6.17,3.131c0,0.792,0.082,1.581,0.416,2.311
		c0.873,1.909,3.047,2.712,4.944,3.187c0.951,0.238,1.919,0.407,2.889,0.552c4.336,0.648,8.732,0.299,13.108,0.113
		c0.869-0.037,1.739-0.072,2.606-0.138c3.149-0.239,7.017,0.65,9.858,0.479c2.841-0.172,8.044-0.582,6.47-5.409
		c-0.372-1.139-0.865-2.243-1.112-3.42c-0.249-1.189-0.335-2.414-0.539-3.612c-0.199-1.169-0.566-2.314-0.692-3.493
		c-0.124-1.171,0.291-3.157-1.14-3.661c-1.221-0.428-2.457-0.773-3.705-1.115c-2.874-0.787-4.372-1.377-4.374-1.378
		c0.063,0.025,0.406-0.878,0.425-0.94c0.241-0.802,0.146-1.668-0.656-2.088C49.619-106.392,48.051-107.202,46.935-106.258z"/>
	<path fill="none" stroke="#4D4D4D" stroke-miterlimit="10" d="M50.938-102.792c0,0-2.266-1.051-2.951-0.744
		c-0.337,0.15-0.656,0.785-0.855,1.069c-2.224,3.172-4.259,6.778-7.375,9.183c-1.497,1.155-3.618,1.307-5.442,1.161"/>
	<path fill="none" stroke="#4D4D4D" stroke-miterlimit="10" d="M22.221-86.736c0,0,1.528,1.736,7.536,2.713
		c6.008,0.976,11.142,0.051,13.659-0.514c2.516-0.565,4.022-1.533,10.184-0.629c6.162,0.903,7.748-2.104,8.136-3.031"/>
	
		<line fill="none" stroke="#4D4D4D" stroke-linecap="round" stroke-linejoin="round" stroke-miterlimit="10" x1="44.015" y1="-102.148" x2="48.67" y2="-100.112"/>
	
		<line fill="none" stroke="#4D4D4D" stroke-linecap="round" stroke-linejoin="round" stroke-miterlimit="10" x1="41.55" y1="-98.862" x2="46.206" y2="-96.826"/>
	<circle fill="#FFFFFF" stroke="#4D4D4D" stroke-miterlimit="10" cx="48.671" cy="-100.112" r="1.095"/>
	<circle fill="#FFFFFF" stroke="#4D4D4D" stroke-miterlimit="10" cx="46.206" cy="-96.826" r="1.096"/>
	<line fill="#FFFFFF" stroke="#4D4D4D" stroke-miterlimit="10" x1="39.496" y1="-96.382" x2="43.741" y2="-93.687"/>
	<circle fill="#FFFFFF" stroke="#4D4D4D" stroke-miterlimit="10" cx="43.741" cy="-93.539" r="1.095"/>
	<path fill="none" stroke="#4D4D4D" stroke-width="0.8216" stroke-miterlimit="10" d="M50.938-102.561
		c-0.269,1.734-0.413,3.578,1.668,4.064c1.802,0.421,3.681,0.813,5.513,1.079c0.567,0.082,1.205,0.248,1.78,0.248"/>
	<line fill="#FFFFFF" stroke="#4D4D4D" stroke-miterlimit="10" x1="37.793" y1="-94.909" x2="40.309" y2="-91.315"/>
	<circle fill="#FFFFFF" stroke="#4D4D4D" stroke-miterlimit="10" cx="40.455" cy="-91.075" r="1.095"/>
	<line fill="none" stroke="#4D4D4D" stroke-miterlimit="10" x1="53.03" y1="-101.769" x2="52.203" y2="-98.886"/>
	<line fill="none" stroke="#4D4D4D" stroke-miterlimit="10" x1="54.952" y1="-101.218" x2="54.125" y2="-98.334"/>
	<line fill="none" stroke="#4D4D4D" stroke-miterlimit="10" x1="56.875" y1="-100.667" x2="56.048" y2="-97.783"/>
	<line fill="none" stroke="#4D4D4D" stroke-miterlimit="10" x1="58.797" y1="-100.115" x2="57.97" y2="-97.231"/>
</g>
<image overflow="visible" width="600" height="600" xlink:href="../素材/52635200064[1].jpg"  transform="matrix(0.0616 0 0 0.0616 92.6875 446.5215)">
</image>
<g>
	<path fill="none" stroke="#4D4D4D" stroke-miterlimit="10" d="M57.483,451.97c-1.065-0.156-2.546,0.508-3.42,0.624
		c-3.917,0.518-8.092,0.54-12.019,0.079c-1.2-0.14-3.563-0.979-4.033,0.708c-0.2,0.716,0.243,1.202,0.616,1.751
		c0.463,0.681,0.556,1.046,0.541,1.865c-0.094,5.08,1.151,12.585-5.607,13.586c-3.438,0.51-6.369,0.491-6.908,4.748
		c-0.048,0.38-0.448,0.795-0.539,1.154c-1.173,4.617,9.66,4.626,12.156,4.557c2.781-0.077,5.542-0.799,8.339-0.873
		c1.976-0.053,3.892,0.312,5.855,0.373c1.935,0.061,4.141-0.196,5.272-1.355c0.708-0.725,0.995-1.802,0.533-3.374
		c-0.104-0.354-0.354-0.459-0.354-0.459s0.062-2.458-0.083-3.583c-0.343-2.65-0.138-5.32-0.013-7.978
		c0.121-2.546-0.127-5.026-0.129-7.563c0-0.619-0.117-0.549,0.225-1.104c0.462-0.753,1.136-2.161,0.271-2.867
		C57.987,452.098,57.748,452.009,57.483,451.97z"/>
	<path fill="none" stroke="#4D4D4D" stroke-miterlimit="10" d="M26.464,475.206c0,0,2.513,1.876,8.013,2.335s8.792,0.083,11.375,0
		s5.833-0.375,8.25-0.625s3.813-1.563,3.813-1.563"/>
	<path fill="none" stroke="#4D4D4D" stroke-width="0.5" stroke-miterlimit="10" d="M57.442,469.1c0,0-7.438,3.244-8.743,8.291"/>
	<path fill="none" stroke="#4D4D4D" stroke-miterlimit="10" d="M38.79,455.384c0,0,5.023,0.616,7.648,0.616
		s11.594-0.616,11.594-0.616"/>
</g>
<image overflow="visible" width="350" height="350" xlink:href="../素材/53941900012.jpg"  transform="matrix(0.1352 0 0 0.1352 104.3335 667.6553)">
</image>
<image overflow="visible" width="600" height="600" xlink:href="../素材/55700800044.jpg"  transform="matrix(0.0799 0 0 0.0799 96.9424 543.458)">
</image>
<g>
	<path fill="none" stroke="#4D4D4D" stroke-linecap="round" stroke-linejoin="round" stroke-miterlimit="10" d="M42.461,563.5
		c0,0-0.794,8.416-4.127,12.416c-1.935,2.322-4.376,3.676-7.266,4.454c-2.43,0.655-8.197,1.668-8.755,4.505
		c-0.23,1.171-0.211,1.366-0.063,2.25c0.244,1.44,6.975,1.781,8.047,1.913c6.486,0.8,11.952-0.894,17.87-3.311
		c1.674-0.684,3.368-1.743,5.209-1.852c2.124-0.125,7.371-0.874,7.375-0.875c1.391-0.22,1.359-5.972,1.287-7.187
		c-0.187-3.159-0.721-6.34-1.171-9.47c-0.023-0.161-0.309-2.845-0.491-2.845C60.374,563.5,42.461,563.5,42.461,563.5z"/>
	<polyline fill="none" stroke="#4D4D4D" stroke-miterlimit="10" points="52.01,584.117 52.5,590.5 60,590.5 60.75,583.001 	"/>
	<path fill="none" stroke="#4D4D4D" stroke-miterlimit="10" d="M22.315,587.253c-2.266,4.183,12.124,3.811,13.896,3.813
		c5.704,0.006,10.758-3.232,15.934-5.189"/>
</g>
<image overflow="visible" width="600" height="600" xlink:href="../素材/59620400011.jpg"  transform="matrix(0.0641 0 0 0.0641 113.231 785.46)">
</image>
<path fill="none" stroke="#4D4D4D" stroke-linecap="round" stroke-linejoin="round" stroke-miterlimit="10" d="M154.993,785.5
	c0,0,6.068,0.001,6.069,0c0.047-0.109-0.057,3.781-0.116,4.129c-0.287,1.691-1.267,2.384-2.956,2.331
	c-1.773-0.055-2.678-0.851-2.947-2.513C154.852,788.263,155,786.984,154.993,785.5z"/>
<g>
	<path fill="none" stroke="#4D4D4D" stroke-linecap="round" stroke-linejoin="round" stroke-miterlimit="10" d="M33.05,802.031
		c-0.597,2.678-1.143,5.367-1.637,8.065c-0.988,5.389-1.403,11.021-1.768,16.486c-0.125,1.875-0.495,6.604-0.62,7.167
		c-0.157,0.706,4.928,0.418,5.325,0.457c1.792,0.175,6.58,0.186,6.607-0.271c0.105-1.749,0.244-3.497,0.413-5.24
		c0.127-1.31,0.261-2.622,0.469-3.921c0.07-0.438,0.401-2.213,1.061-2.063c0.595,0.136,0.598,2.133,0.649,2.6
		c0.261,2.38,0.312,8.844,0.312,8.844s1.032,0.469,6.469-0.031l5.958-0.374c0,0-0.614-8.126-0.739-9.751s-0.953-8.063-1.016-9.188
		s-0.977-6.563-1.414-8.25c-0.246-0.951-0.34-1.95-0.587-2.902c-0.076-0.295-0.147-1.235-0.336-1.43
		c-0.377-0.386-2.101-0.11-2.612-0.092c-1.566,0.058-3.132,0.115-4.698,0.16c-2.766,0.08-5.497-0.107-8.259-0.236
		C36.36,802.051,33.112,801.753,33.05,802.031z"/>
	<path fill="none" stroke="#4D4D4D" stroke-linecap="round" stroke-linejoin="round" stroke-miterlimit="10" d="M32.549,804.355
		c5.833,0.887,11.44,0.992,17.304,0.391c0.905-0.094,1.866-0.164,2.751-0.391"/>
	
		<line fill="none" stroke="#4D4D4D" stroke-linecap="round" stroke-linejoin="round" stroke-miterlimit="10" x1="42.768" y1="816.059" x2="43.019" y2="805.5"/>
	<path fill="none" stroke="#4D4D4D" stroke-linecap="round" stroke-linejoin="round" stroke-miterlimit="10" d="M37.367,804.915
		c0,0-2.625,4.097-6.033,5.622"/>
	<path fill="none" stroke="#4D4D4D" stroke-linejoin="round" stroke-miterlimit="10" d="M47.333,804.915
		c0,0,3.217,4.339,6.625,5.864"/>
</g>
<g>
	<path fill="none" stroke="#4D4D4D" stroke-linecap="round" stroke-linejoin="round" stroke-miterlimit="10" d="M25.843,925.828
		l3.969,5.672l3.589-2.007c0,0-0.254,6.946-0.254,7.938s-0.466,10.184-0.545,11.646c-0.078,1.462-0.86,11.172-0.755,11.591
		c0.104,0.416,2.456,0.832,5.328,0.832c2.208,0,4.415,0,6.623,0c0.672,0,8.505,0.21,8.453-0.532
		c-0.571-8.051-1.264-15.983-1.285-24.06c-0.002-0.922-0.007-1.843-0.007-2.765c0-0.417-0.052-4.464-0.052-4.464l3.715,1.771
		l3.956-5.661c0,0-4.929-2.589-6.078-3.164c-1.063-0.532-2.12-1.08-3.185-1.61c-0.943-0.47-1.959-1.381-3.043-1.472
		c-1.309-0.11-6.079,0.03-7.732,0.082c-0.995,0.031-2.201,0.971-3.136,1.339c-2.629,1.036-5.153,2.448-7.68,3.714
		C27.468,924.806,25.843,925.433,25.843,925.828z"/>
	<path fill="none" stroke="#4D4D4D" stroke-linecap="round" stroke-linejoin="round" stroke-miterlimit="10" d="M38.021,919.715
		c-0.138,1.22,1.042,2.458,2.083,2.785c1.665,0.523,4.645,0.634,5.873-0.98c0.365-0.479,0.526-1.209,0.523-1.805"/>
</g>
<image overflow="visible" width="600" height="600" xlink:href="../素材/57738900011.jpg"  transform="matrix(0.0712 0 0 0.0712 107.0771 1043.5273)">
</image>
<image overflow="visible" width="600" height="600" xlink:href="../素材/54724700013.jpg"  transform="matrix(0.091 0 0 0.091 122.4756 1168.1895)">
</image>
<line fill="none" x1="127" y1="1194" x2="127" y2="1197"/>
<g>
	
		<path fill="#4D4D4D" stroke="#4D4D4D" stroke-width="1.0536" stroke-linecap="round" stroke-linejoin="round" stroke-miterlimit="10" d="
		M66.77,1196.736c-0.063-0.081-0.136-0.148-0.222-0.199c-0.653-0.386-2.46-0.216-3.204-0.216c-1.613,0-9.374,0.494-13.884,1.251
		c-4.511,0.758-5,1.219-6.218,1.152c-1.218-0.065-4.426-0.593-5.875-0.955c-1.449-0.361-5.883-1.119-7.003-1.152
		c-3.317-0.098-6.643-0.023-9.961-0.09c-0.684-0.014-1.67-0.189-2.181,0.412c-0.414,0.488-0.312,1.51-0.181,2.074
		c0.241,1.045,1.753,0.932,2.053,2.132c0.645,2.582,0.697,5.682,2.799,7.646c2.38,2.226,6.927,2.721,10.001,2.282
		c2.151-0.307,4.979-1.85,6.033-3.562c0.602-0.979,1.088-2.033,1.547-3.085c0.538-1.23,1.096-2.181,2.637-2.101
		c0.834,0.045,1.144,0.043,1.626,0.79s0.617,4.679,4.085,6.83c0,0,2.809,1.435,5.399,1.231c2.007-0.158,4.079-0.432,5.923-1.287
		c2.207-1.024,3.578-2.606,4.394-4.817c0.388-1.054,0.526-2.437,1.098-3.425c0.515-0.889,1.017-1.626,1.302-2.646
		C67.111,1198.38,67.184,1197.271,66.77,1196.736z"/>
	<path fill="#CCCCCC" d="M36.332,1208.306c-2.539,2.235-7.436,2.375-10.29,0.879c-2.828-1.48-3.928-4.476-4.131-7.529
		c-0.395-5.931,11.049-3.333,14.091-2.832C41.302,1199.697,39.083,1205.885,36.332,1208.306z"/>
	<path fill="#CCCCCC" d="M61.87,1207.15c-4.193,4.406-15.2,4.043-15.2-3.718c-0.2-5.387,7.969-5.935,11.951-5.794
		c1.93,0.067,4.199,0.119,4.857,2.295C64.357,1202.84,63.564,1205.369,61.87,1207.15z"/>
</g>
<image overflow="visible" width="600" height="600" xlink:href="../素材/44594999991.jpg"  transform="matrix(0.0644 0 0 0.0644 152.25 1439.7148)">
</image>
<image overflow="visible" width="600" height="600" xlink:href="../素材/59188600011.jpg"  transform="matrix(0.0525 0 0 0.0525 113.4995 1446.0186)">
</image>
<rect x="-15" y="1357" fill="#4D4D4D" width="3" height="4"/>
<circle fill="none" stroke="#4D4D4D" stroke-width="1.0349" stroke-miterlimit="10" cx="-13.406" cy="1363.734" r="2.781"/>
<path fill="#4D4D4D" d="M-12.02,1303c-0.095-0.563-0.717-1-1.48-1s-1.386,0.437-1.48,1H-15v53h3v-53H-12.02z"/>
<image overflow="visible" width="600" height="600" xlink:href="../素材/55751800081.jpg"  transform="matrix(0.0965 0 0 0.0965 112.4229 1295.9297)">
</image>
<line fill="none" x1="-47.797" y1="1320.922" x2="-41.289" y2="1327.43"/>
<line fill="none" x1="-43.954" y1="1319.392" x2="-38.313" y2="1324.875"/>
<g>
	<circle fill="none" stroke="#4D4D4D" stroke-width="0.9752" stroke-miterlimit="10" cx="66.891" cy="1333.731" r="2.621"/>
	<g>
		<path fill="#4D4D4D" d="M60.84,1333.294c2.819,1.028,3.751,1.396,3.751,1.396l0.979-2.903c0,0-1.881-0.682-3.756-1.38
			L60.84,1333.294z"/>
		<path fill="#4D4D4D" d="M19.229,1313.233c-0.387-0.048-2.404,0.043-2.806-0.034c-0.402-0.077-0.755,0.116-1.103,0.492
			c-0.347,0.374,0.201,0.863,0.586,1.315c0.386,0.453,0.971,1.146,1.191,1.765c0.221,0.618,2.606,1.647,3.802,2.105
			s7.592,2.949,8.374,3.097c0.782,0.147,11.411,3.947,12.598,4.301c0.852,0.254,11.463,4.238,18.027,6.681l0.973-2.886
			c-4.694-1.729-10.829-4.014-11.062-4.104c-0.353-0.135-9.192-4.054-10.068-4.287c-0.875-0.233-8.127-3.317-9.926-4.059
			c-1.799-0.741-2.983-1.295-4.255-2.087C24.291,1314.742,19.617,1313.281,19.229,1313.233z M24.91,1317.824l-7.568-2.318
			c0,0-0.029-1.052,0.488-1.539C17.829,1313.967,23.938,1317.045,24.91,1317.824z"/>
	</g>
	<circle fill="#FFFFFF" cx="66.919" cy="1333.855" r="2.272"/>
</g>
<g>
	<circle fill="none" stroke="#4D4D4D" stroke-width="1.3256" stroke-miterlimit="10" cx="-53.625" cy="1368.516" r="3.563"/>
	<g>
		<path fill="#4D4D4D" d="M-55.809,1360c-0.12,3.537-0.202,5.899-0.202,5.899l4.992-0.065c0,0,0.074-2.448,0.177-5.834H-55.809z"/>
		<path fill="#4D4D4D" d="M-46.488,1286.579c-0.129-0.622-1.318-3.688-1.408-4.35c-0.09-0.661-0.573-1.106-1.333-1.446
			c-0.759-0.342-1.23,0.761-1.728,1.59c-0.499,0.831-1.266,2.096-2.105,2.758c-0.839,0.662-1.187,4.883-1.272,6.967
			c-0.085,2.085-0.603,13.26-0.423,14.545c0.18,1.283-0.156,19.35-0.084,21.364c0.051,1.45-0.578,20.466-0.934,30.993h4.963
			c0.227-7.483,0.561-18.486,0.578-18.893c0.025-0.616,1.476-16.145,1.381-17.617s0.893-14.197,1.1-17.359
			c0.208-3.164,0.447-5.241,1.009-7.615C-46.183,1295.142-46.36,1287.204-46.488,1286.579z M-50.621,1297.742l-0.36-12.894
			c0,0,1.609-0.592,2.631-0.047C-48.35,1284.802-49.923,1295.837-50.621,1297.742z"/>
	</g>
	<circle fill="#FFFFFF" cx="-53.609" cy="1368.771" r="3.255"/>
</g>
<g>
	<path fill="none" stroke="#4D4D4D" stroke-linecap="round" stroke-linejoin="round" stroke-miterlimit="10" d="M62.779,1443.625
		c0-3.344-2.754-5.181-6.147-5.181c-2.538,0-5.209,1.427-6.044,3.925c-0.522,1.562-0.257,22.356-0.257,23.131c0,0.003,0.17,0,0.17,0
		h12.274C62.774,1465.5,62.779,1443.822,62.779,1443.625z"/>
	<rect x="55.5" y="1434.5" fill="none" stroke="#4D4D4D" stroke-linecap="round" stroke-miterlimit="10" width="3" height="4"/>
</g>
<g>
	<path fill="none" stroke="#4D4D4D" stroke-linecap="round" stroke-linejoin="round" stroke-miterlimit="10" d="M42.038,1447.563
		c0,0,0.084,4.619,0.01,4.805c-0.074,0.185-1.624,1.703-11.366,1.814c-9.742,0.111-12.182-1.451-12.182-1.451v-5.544
		c0,0,1.656,1.813,11.188,1.813C39.215,1449,40.349,1448.428,42.038,1447.563z"/>
	<path fill="none" stroke="#4D4D4D" stroke-linecap="round" stroke-linejoin="round" stroke-miterlimit="10" d="M42.281,1452.125
		c0,0,0.62,0.243,0.657,0.799s0.275,8.62,0.016,10.139c-0.343,2.008-4.125,2.097-5.604,2.295c-4.529,0.605-9.277,0.648-13.804-0.01
		c-1.095-0.159-5.707-0.608-5.964-2.389c-0.202-1.398-0.332-5.958-0.13-9.184c0.056-0.902,0.571-1.368,0.838-1.481"/>
	<path fill="#FFFFFF" stroke="#4D4D4D" stroke-linecap="round" stroke-linejoin="round" stroke-miterlimit="10" d="M18.656,1447.031
		c0,0,1.892-2.008,10.375-2.156c0,0,1.39,0.03,2.688,0.063c2.525,0.063,5.235,0.488,7.563,1.031c0,0,2.766,0.76,2.754,1.452
		c-0.018,1.042-8.766,1.759-12.348,1.767c-2.035,0.005-7.674-0.554-9.608-1.196C19.996,1447.964,18.417,1447.263,18.656,1447.031z"
		/>
</g>
<path fill="none" stroke="#4D4D4D" stroke-linecap="round" stroke-linejoin="round" stroke-miterlimit="10" d="M170.483,1080.484"/>
<g>
	<g>
		<path fill="none" stroke="#4D4D4D" stroke-linecap="round" stroke-linejoin="round" stroke-miterlimit="10" d="M55.561,1051.126
			c-0.332,1.489-0.635,2.982-0.91,4.482c-0.549,2.994-0.779,6.124-0.981,9.159c-0.07,1.042-1.387,15.893-1.457,16.206
			c-0.087,0.393,2.738,0.231,2.959,0.253c0.996,0.098,3.655,0.104,3.67-0.149c0.059-0.972,1.247-14.166,1.341-15.135
			c0.071-0.729,0.146-1.457,0.261-2.179c0.039-0.243,0.222-1.229,0.589-1.146c0.33,0.074,0.333,1.184,0.361,1.444
			c0.144,1.321,1.104,17.207,1.104,17.207s0.198,0.189,3.219-0.088l2.97-0.187c0,0-0.867-16.966-0.937-17.87
			c-0.247-3.191-0.229-6.355-1.039-9.48c-0.137-0.527-0.188-1.084-0.326-1.613c-0.042-0.163-0.082-0.686-0.187-0.793
			c-0.209-0.215-1.168-0.063-1.452-0.052c-0.87,0.032-1.739,0.063-2.61,0.09c-1.537,0.044-3.054-0.061-4.589-0.132
			C57.4,1051.137,55.595,1050.973,55.561,1051.126z"/>
		<path fill="none" stroke="#4D4D4D" stroke-linecap="round" stroke-linejoin="round" stroke-miterlimit="10" d="M55.283,1053.505
			c3.241,0.492,6.355,0.552,9.613,0.217c0.503-0.051,1.038-0.092,1.529-0.217"/>
	</g>
	<g>
		<path fill="none" stroke="#4D4D4D" stroke-linecap="round" stroke-linejoin="round" stroke-miterlimit="10" d="M14.972,1078.996
			c0.001,0,4.539,1.201,4.539,1.201l3.404-14.361c0,0-0.778,13.768-0.671,14.189c0.105,0.421,17.607,0.986,17.593,0.236
			c-0.163-8.497-0.302-14.781-0.302-14.781l2.603,14.684c0,0,4.282-1.222,4.285-1.223c-0.11,0.019-3.139-16.648-3.329-17.674
			c-0.473-2.543-0.888-3.864-3.156-5.268c-0.335-0.207-4.499-1.654-5.313-1.652c-0.367,0.001,0.14-3.31-0.101-3.307
			c-0.537,0.007-2.303,0.672-3.367,0.668c-1.097-0.005-3.122-0.682-3.609-0.668c-0.595,0.016,0.347,3.379,0.001,3.499
			c-1.821,0.626-3.848,1.079-5.406,2.272c-2.471,1.893-2.955,6.384-3.771,9.251c-0.95,3.338-1.869,6.682-2.743,10.04
			C15.583,1076.274,14.859,1078.966,14.972,1078.996z"/>
		<path fill="none" stroke="#4D4D4D" stroke-linecap="round" stroke-linejoin="round" stroke-miterlimit="10" d="M28.346,1051.044"
			/>
		<path fill="none" stroke="#4D4D4D" stroke-linecap="round" stroke-linejoin="round" stroke-miterlimit="10" d="M27.547,1054.54
			c0,0,3.164,2.68,6.759-0.238"/>
		
			<line fill="none" stroke="#4D4D4D" stroke-linecap="round" stroke-linejoin="round" stroke-miterlimit="10" x1="30.926" y1="1055.663" x2="31.083" y2="1080.453"/>
		
			<line fill="none" stroke="#4D4D4D" stroke-linecap="round" stroke-linejoin="round" stroke-miterlimit="10" x1="29.5" y1="1052" x2="29.5" y2="1055"/>
		
			<line fill="none" stroke="#4D4D4D" stroke-linecap="round" stroke-linejoin="round" stroke-miterlimit="10" x1="32.5" y1="1052" x2="32.5" y2="1055"/>
	</g>
</g>
<line fill="none" stroke="#4D4D4D" stroke-miterlimit="10" x1="40.875" y1="452.813" x2="41" y2="455.691"/>
<line fill="none" stroke="#4D4D4D" stroke-miterlimit="10" x1="42.875" y1="452.813" x2="43" y2="455.691"/>
<line fill="none" stroke="#4D4D4D" stroke-miterlimit="10" x1="44.875" y1="452.813" x2="45" y2="455.691"/>
<line fill="none" stroke="#4D4D4D" stroke-miterlimit="10" x1="46.875" y1="452.813" x2="47" y2="455.691"/>
<line fill="none" stroke="#4D4D4D" stroke-miterlimit="10" x1="48.875" y1="452.813" x2="49" y2="455.691"/>
<line fill="none" stroke="#4D4D4D" stroke-miterlimit="10" x1="50.875" y1="452.813" x2="51" y2="455.691"/>
<line fill="none" stroke="#4D4D4D" stroke-miterlimit="10" x1="52.875" y1="452.813" x2="53" y2="455.691"/>
<line fill="none" stroke="#4D4D4D" stroke-miterlimit="10" x1="54.875" y1="452.813" x2="55" y2="455.691"/>
<path fill="none" stroke="#4D4D4D" stroke-width="0.5" stroke-linecap="round" stroke-linejoin="round" stroke-miterlimit="10" d="
	M28.173,472.089c0,0,0.75,3.573,21.507,3.117"/>
<rect x="50.5" y="1448.5" fill="#4D4D4D" stroke="#4D4D4D" stroke-miterlimit="10" width="12" height="8"/>
</svg>
