<svg xmlns="http://www.w3.org/2000/svg" width="85" height="85" viewBox="0 0 85 85"><defs><style>.a{fill:none;}.b{fill:#49423e;}</style></defs><g transform="translate(-335 -209)"><rect class="a" width="85" height="85" rx="4" transform="translate(335 209)"/><g transform="translate(362.5 226.499)"><path class="b" d="M296.6,151.825H270.738a.48.48,0,0,1-.385-.192,7.859,7.859,0,0,1-1.594-4.755c0-4.018,3.567-6.2,5.693-7.145,3.6-1.729,9.085-4.378,9.4-4.562a.493.493,0,0,1,.646.128c.953,1.333,3.533,4.433,6.876,4.433a5.338,5.338,0,0,0,.808-.062c.948-.146,1.643-1.746,2.2-3.033l.085-.2c.26-.593.621-.718.878-.718,1.823,0,3.492,8.194,3.6,9.653.249,3.483-.959,5.361-2.016,6.324A.479.479,0,0,1,296.6,151.825Zm-25.62-.962h25.429c1.214-1.2,1.743-3.017,1.571-5.419-.17-2.373-1.764-7.939-2.594-8.7-.012.022-.025.049-.04.082l-.084.194c-.654,1.5-1.468,3.374-2.938,3.6a6.271,6.271,0,0,1-.955.073c-3.522,0-6.214-2.921-7.411-4.5-1.586.8-7.217,3.506-9.105,4.414-1.926.855-5.135,2.8-5.135,6.272A6.894,6.894,0,0,0,270.982,150.863Z" transform="translate(-268.759 -135.101)"/><path class="b" d="M284.61,148.4a3.161,3.161,0,0,1-2.851-1.791l-2.6-5.471.869-.413,2.6,5.47a2.2,2.2,0,0,0,3.958-1.9l-2.567-5.455.871-.409,2.566,5.452a3.157,3.157,0,0,1-2.843,4.519Z" transform="translate(-272.49 -136.295)"/><path class="b" d="M296.8,163.194H273.022a.792.792,0,0,1-.662-.355.463.463,0,0,1-.062-.134l-.54-1.878.924-.265.48,1.67h23.489l.385-1.61.935.224-.44,1.838a.484.484,0,0,1-.068.155A.791.791,0,0,1,296.8,163.194Z" transform="translate(-269.836 -144.238)"/></g></g></svg>