<svg xmlns="http://www.w3.org/2000/svg" width="85" height="85" viewBox="0 0 85 85"><defs><style>.a{fill:none;}.b{fill:#49423e;}</style></defs><g transform="translate(-335 -87)"><rect class="a" width="85" height="85" rx="4" transform="translate(335 87)"/><g transform="translate(354.167 106.168)"><path class="b" d="M58.378,463.475c.072-3.721,3.823-3.967,6.847-4.161.328-.021.65-.042.961-.067l.477-.046a4.052,4.052,0,0,0,.727-.168l-.127-.266a.422.422,0,0,1,.2-.562l1.682-.8a.421.421,0,0,1,.562.2l.207.435.439-.195-.213-.447a.421.421,0,0,1,.2-.562l1.683-.8a.421.421,0,0,1,.562.2l.23.482.435-.2-.232-.486a.422.422,0,0,1,.2-.562l1.682-.8a.421.421,0,0,1,.562.2l.247.519.143-.065.295-.132-.251-.528a.421.421,0,0,1,.2-.562l1.683-.8a.421.421,0,0,1,.322-.017.425.425,0,0,1,.24.216l.267.56,6.321-4.248a.423.423,0,0,1,.5.024c1.95,1.6,2.983,3.169,3.07,4.664a3.084,3.084,0,0,1-.344,1.64,14.307,14.307,0,0,0,4.687.46c3.035-.147,5.505-1.035,5.505-1.98a2.7,2.7,0,0,1,1.343-2.593,2.3,2.3,0,0,1,2.119-.078.586.586,0,0,1,.281.553,48.189,48.189,0,0,0,1.3,5.171c.05.18.095.373.131.571h0a20.561,20.561,0,0,1-.11,5.708c.1.6.6,3.8-.066,4.913-.676,1.126-5.456,1.418-23.252,1.418-14.027,0-20-2.332-21.49-3.047C57.148,466.53,58.152,464,58.378,463.475Zm44.257.911c-.994.045-3.851.178-7.229.367-1.6.1-3.381.218-5.243.362a.428.428,0,0,1-.1.023l-2.8.216c-1.247.109-2.512.229-3.773.359l-3.479.393a17.119,17.119,0,0,1-3.648.28c-.517.018-1.032.029-1.541.029-.243,0-.484,0-.724-.007l-.281,0h-.007a.478.478,0,0,1-.054-.011,57.967,57.967,0,0,1-10.618-1.278,28.093,28.093,0,0,1-4.106-1,6.734,6.734,0,0,0-.279.986.412.412,0,0,1,.2.024c3.831,1.583,17.493,2.951,20.885,2.09s20.74-1.647,22.931-1.744C102.732,465.094,102.685,464.72,102.635,464.386Zm-24.7-6.513,5.659,6.875c.616-.062,1.278-.122,1.973-.181l-6.115-7.35Q78.717,457.539,77.939,457.874Zm-5.216,2.168,4.495,5.461q.948-.052,1.9-.151l-4.859-5.934Q73.488,459.737,72.723,460.042Zm-8.106,2.591-1.2,1.681a87.714,87.714,0,0,0,9.276,1.1L69,461.456A18.258,18.258,0,0,1,64.617,462.633Zm9.289,2.845c.6.029,1.189.05,1.742.06l.5-.008L71.9,460.369c-.7.275-1.383.535-2.034.775Zm6.2-.259c.582-.123,1.44-.245,2.489-.363l-5.462-6.636c-.676.288-1.363.577-2.051.863Zm.157-8.353,6.337,7.618c.817-.065,1.668-.128,2.534-.188l-6.851-8.323C81.662,456.248,80.983,456.548,80.261,456.866Zm-21.035,6.406.233.069.05.015.246.071.083.023.27.075.113.031.3.081.136.036.329.085.157.04.362.09.174.042.393.093.194.045.246.056,2.846-3.972-.079.005C61.862,460.375,59.406,460.735,59.226,463.272Zm9.9-4.925-.92.438.438.921.92-.438ZM72,456.976l-.921.438.216.454s0,0,.005.008a.061.061,0,0,0,0,.007l.3.624.921-.438-.294-.618h0Zm1.173.5.291.611a.422.422,0,0,1-.2.562l-1.682.8a.422.422,0,0,1-.181.041.428.428,0,0,1-.141-.024.422.422,0,0,1-.24-.216l-.308-.646-.107.048-.332.147.231.485a.422.422,0,0,1-.2.562l-1.682.8a.426.426,0,0,1-.181.041.421.421,0,0,1-.381-.241l-.308-.646a5.122,5.122,0,0,1-1.007.238l-.267.026L65.3,461.71a29.107,29.107,0,0,0,3.683-1.142l2.893-1.1h0c.754-.3,1.538-.616,2.34-.946l.006,0,2.862-1.2c.008,0,.018,0,.026-.007.757-.322,1.516-.65,2.27-.978.008,0,.012-.011.02-.015l2.827-1.247c.01,0,.02,0,.03-.008.941-.42,1.849-.832,2.7-1.224a.44.44,0,0,0-.17-.229c-.457-.3-1.843-.312-5.784,1.291l.215.451a.421.421,0,0,1-.2.562l-1.683.8a.418.418,0,0,1-.181.041.428.428,0,0,1-.141-.024.422.422,0,0,1-.24-.216l-.269-.565-.438.2.273.574a.422.422,0,0,1-.2.562l-1.683.8a.421.421,0,0,1-.181.041.423.423,0,0,1-.381-.241l-.289-.607Zm1.705-1.87-.921.438.232.488,0,.005v.005l.284.595.921-.438-.276-.579a.1.1,0,0,1-.005-.009l0-.006Zm2.878-1.37-.921.438.259.544,0,0v0l.259.544.921-.438Zm9.9.305c-.069-1.175-.94-2.505-2.523-3.86l-3.472,2.333a7.847,7.847,0,0,1,2.637-.427,1.958,1.958,0,0,1,.96.292,1.361,1.361,0,0,1,.59,1.207,1.508,1.508,0,0,0,.521,1.127,3.525,3.525,0,0,0,.987.626A2.244,2.244,0,0,0,87.66,454.541Zm-.2,2.248a.44.44,0,0,1-.126-.024,3.268,3.268,0,0,1-2.249-2.059c-.47.214-1.163.529-2.008.908l7.086,8.61c1.945-.13,3.923-.247,5.727-.346,3.323-.2,5.836-.3,6.729-.338a20.508,20.508,0,0,0,.129-4.819,4.164,4.164,0,0,1-1.806-.544,2.772,2.772,0,0,0-1.436-.4,1.938,1.938,0,0,0-1.3.612,4.1,4.1,0,0,1-2.918,1.1,2.909,2.909,0,0,1-2.2-.8,2.38,2.38,0,0,1-.606-1.241A14.313,14.313,0,0,1,87.464,456.789Zm12.626-4.025a1.926,1.926,0,0,0-.9,1.849,1.394,1.394,0,0,1-.035.31c-.008.034-.023.065-.033.1a1.444,1.444,0,0,1-.069.193c-.018.038-.043.073-.065.111a1.666,1.666,0,0,1-.1.162c-.028.038-.062.075-.094.112s-.081.1-.128.144-.08.072-.121.108-.1.088-.154.13-.1.068-.146.1-.115.079-.178.117-.112.065-.17.1-.13.071-.2.105-.127.06-.191.089-.143.064-.217.095-.14.055-.211.082-.154.057-.233.084-.151.05-.228.074-.163.05-.247.074l-.243.066c-.085.022-.171.044-.259.065l-.256.058-.269.055c-.088.017-.176.034-.265.05s-.186.031-.28.046-.18.029-.271.041-.192.025-.289.037-.182.023-.273.033-.2.019-.3.029l-.27.024-.07.006a1.516,1.516,0,0,0,.368.7,2.114,2.114,0,0,0,1.592.536,3.291,3.291,0,0,0,2.385-.911,2.719,2.719,0,0,1,1.834-.8,3.55,3.55,0,0,1,1.822.494,3.466,3.466,0,0,0,1.244.431l-.088-.308-.07-.246-.07-.249c-.028-.1-.057-.2-.084-.295l-.039-.139-.1-.362-.027-.1c-.034-.123-.068-.245-.1-.361l-.046-.168-.07-.257-.038-.142-.069-.259-.011-.043c-.029-.11-.057-.217-.084-.318-.007-.027-.013-.051-.02-.078-.022-.086-.044-.173-.065-.253l-.031-.125c-.014-.059-.03-.119-.043-.174s-.02-.082-.03-.124l-.036-.152c-.009-.04-.017-.075-.025-.112s-.021-.09-.03-.131-.018-.084-.027-.126-.014-.065-.02-.094c-.01-.048-.018-.092-.026-.136,0-.019-.008-.039-.011-.057-.019-.1-.032-.189-.043-.269l-.007-.049c-.005-.045-.009-.087-.012-.125A1.723,1.723,0,0,0,100.09,452.764Zm-41.114,13.7c1.454.7,7.276,2.965,21.126,2.965,8.644,0,21.706,0,22.528-1.008a4.678,4.678,0,0,0,.2-2.106c-1.946.086-19.51.889-22.786,1.721a16.683,16.683,0,0,1-3.639.289c-5.515,0-14.524-1.108-17.715-2.395A.616.616,0,0,0,58.976,466.468Z" transform="translate(-57.832 -449.732)"/></g></g></svg>