<?xml version="1.0" encoding="utf-8"?>
<!-- Generator: Adobe Illustrator 16.0.0, SVG Export Plug-In . SVG Version: 6.00 Build 0)  -->
<!DOCTYPE svg PUBLIC "-//W3C//DTD SVG 1.1//EN" "http://www.w3.org/Graphics/SVG/1.1/DTD/svg11.dtd">
<svg version="1.1" id="レイヤー_1" xmlns="http://www.w3.org/2000/svg" xmlns:xlink="http://www.w3.org/1999/xlink" x="0px"
	 y="0px" width="85px" height="85px" viewBox="0 0 85 85" enable-background="new 0 0 85 85" xml:space="preserve">
<g>
	
		<path fill="none" stroke="#4D4D4D" stroke-width="0.7919" stroke-linecap="round" stroke-linejoin="round" stroke-miterlimit="10" d="
		M44.961,12.48c0,0,0.148,6.287-2.624,11.285c-1.891,3.408-4.516,6.558-8.015,8.382c-1.746,0.911-3.521,1.293-5.451,1.561
		c-1.697,0.235-3.945,0.502-4.642,2.37c-1.139,3.054,3.165,4.609,5.236,5.369c3.848,1.41,8.076,1.699,11.931,0.136
		c3.416-1.386,3.961-3.613,10.345-5.692c6.386-2.079,5.741-1.04,6.93-2.129c1.188-1.089,0.989-3.539,0.249-6.125
		c-0.524-1.825-1.307-3.539-2.005-5.297c-0.275-0.691-0.252-1.63-0.103-2.346c0.146-0.686,0.213-1.379,0.326-2.07
		c0.063-0.381,0.977-4.919,1.039-4.905c-0.42-0.107-0.874-0.108-1.303-0.133c-1.063-0.063-2.127-0.104-3.188-0.143
		c-1.273-0.047-2.545-0.088-3.817-0.127c-1.104-0.034-2.209-0.065-3.313-0.095c-0.511-0.014-1.023-0.028-1.534-0.04
		C45.015,12.48,44.961,12.48,44.961,12.48z"/>
	
		<polyline fill="none" stroke="#4D4D4D" stroke-width="0.7919" stroke-linecap="round" stroke-linejoin="round" stroke-miterlimit="10" points="
		51.494,35.973 51.627,42.121 58.094,42.121 58.54,33.88 	"/>
	
		<line fill="none" stroke="#4D4D4D" stroke-width="0.5939" stroke-linecap="round" stroke-linejoin="round" stroke-miterlimit="10" x1="51.601" y1="39.977" x2="58.158" y2="39.977"/>
</g>
</svg>
