<svg xmlns="http://www.w3.org/2000/svg" width="85" height="85" viewBox="0 0 85 85"><defs><style>.a{fill:none;}.b{fill:#49423e;}</style></defs><g transform="translate(-1067 -87)"><rect class="a" width="85" height="85" rx="4" transform="translate(1067 87)"/><g transform="translate(1086.167 109.5)"><path class="b" d="M196.393,239.479c.746-1.219,7.493-4.406,11.249-5.273,1.721-.4,3.228.673,4.973,1.913,2.879,2.045,6.462,4.589,13.071,2.517,8.359-2.622,11.96-5.85,13.12-7.116a1,1,0,0,1,1.589.147,11.887,11.887,0,0,1,.762,10.742.373.373,0,0,1-.071.113c-.075.26-.155.521-.247.781a.885.885,0,0,1-.776.587L229.6,244.6a.49.49,0,0,1-.071,0c-.046-.005-4.72-.522-14.756.737a28.792,28.792,0,0,1-3.6.226c-8.413,0-14.3-3.68-14.788-4.435A1.314,1.314,0,0,1,196.393,239.479Zm43.351-7.4a.237.237,0,0,0-.181-.111.224.224,0,0,0-.191.073c-1.2,1.312-4.919,4.653-13.456,7.331-6.975,2.188-10.889-.594-13.746-2.624-1.66-1.179-2.97-2.109-4.355-1.79-4.227.975-10.054,4.037-10.7,4.8.713,1,8.168,4.792,17.743,3.6a98.469,98.469,0,0,1,11.969-.857c1.478,0,2.426.059,2.886.1a2.858,2.858,0,0,0,.43,0l10.38-.7A11.082,11.082,0,0,0,239.743,232.078Zm-25.065,12.5c9.79-1.228,14.42-.794,14.9-.741l10.426-.713a.117.117,0,0,0,.1-.075c.042-.117.073-.234.111-.351l-10.029.678a3.642,3.642,0,0,1-.546,0c-.859-.072-5.6-.373-14.7.756a30.571,30.571,0,0,1-3.771.233c-6.963,0-12.4-2.351-14.172-3.68.006.01.01.02.017.029C197.586,241.507,204.906,245.8,214.678,244.577Z" transform="translate(-196.099 -231.197)"/></g></g></svg>